<svg width="48" height="48" viewBox="0 0 48 48" fill="none" xmlns="http://www.w3.org/2000/svg">
<rect width="48" height="48" rx="8" fill="#3ABF21" fill-opacity="0.1"/>
<path fill-rule="evenodd" clip-rule="evenodd" d="M28.8003 14.9769C26.5179 13.66 23.8531 13.1653 21.2502 13.5754C18.6472 13.9855 16.2636 15.2755 14.4967 17.2304C12.7297 19.1852 11.6864 21.6867 11.5406 24.3177C11.3949 26.9487 12.1555 29.5502 13.6956 31.6882C15.2357 33.8263 17.4623 35.3718 20.004 36.0669C22.5456 36.7621 25.2488 36.5649 27.6627 35.5082C30.0766 34.4515 32.0552 32.5992 33.2687 30.2602C34.4822 27.9212 34.8572 25.2369 34.331 22.6549C34.1899 21.9622 34.637 21.2863 35.3297 21.1451C36.0224 21.004 36.6983 21.4511 36.8395 22.1438C37.4825 25.2995 37.0242 28.5804 35.5411 31.4391C34.058 34.2979 31.6396 36.5618 28.6893 37.8533C25.739 39.1448 22.4351 39.3859 19.3286 38.5363C16.2221 37.6866 13.5008 35.7977 11.6184 33.1845C9.736 30.5713 8.80638 27.3917 8.98456 24.1761C9.16273 20.9604 10.4379 17.903 12.5975 15.5138C14.757 13.1245 17.6704 11.5478 20.8517 11.0466C24.0331 10.5454 27.2901 11.1499 30.0797 12.7595C30.692 13.1128 30.902 13.8956 30.5487 14.5079C30.1954 15.1202 29.4126 15.3301 28.8003 14.9769Z" fill="#3ABF21"/>
<path fill-rule="evenodd" clip-rule="evenodd" d="M36.7451 13.8144C37.2449 14.3142 37.2449 15.1247 36.7451 15.6245L23.9451 28.4245C23.4452 28.9244 22.6348 28.9244 22.1349 28.4245L18.2949 24.5845C17.795 24.0847 17.795 23.2742 18.2949 22.7744C18.7948 22.2745 19.6052 22.2745 20.1051 22.7744L23.04 25.7093L34.9349 13.8144C35.4348 13.3145 36.2452 13.3145 36.7451 13.8144Z" fill="#3ABF21"/>
</svg>
