<?xml version="1.0" encoding="utf-8"?>
<!-- Generator: Adobe Illustrator 22.1.0, SVG Export Plug-In . SVG Version: 6.00 Build 0)  -->
<svg version="1.1" id="Layer_1" xmlns="http://www.w3.org/2000/svg" xmlns:xlink="http://www.w3.org/1999/xlink" x="0px" y="0px"
	 viewBox="0 0 1000 1000" style="enable-background:new 0 0 1000 1000;" xml:space="preserve">
<style type="text/css">
	.st0{fill:#FF661C;}
</style>
<g>
	<path class="st0" d="M613,879.3c17.3-5.1,34.1-11.6,50.5-19.1l27.9,61.4c15-6.8,29.8-14.5,44.1-23l-34.7-58.6
		c-1.9,1.1-19.8,11.4-21.7,12.5l-33.2-59.2c-16.8,8.4-34.3,15.4-52.3,20.7L613,879.3z"/>
	<path class="st0" d="M894.4,532c0.5-5.9,0.5-11.9,0.7-17.9l67.5,2.4c0.2-5.5,0.3-11,0.3-16.5c0-5.5-0.1-11.1-0.3-16.6l-67.5,2.4
		c-0.2-6-0.2-11.9-0.7-17.8l-67.3,5.4c-1.5-17.8-4.3-35.3-8.6-52.5l65.6-16.2c-4.8-19.3-11.1-38.2-18.7-56.6l62.1-25.9
		c-6.3-15.2-13.6-30.2-21.5-44.7l-59.7,32.8c4,7.2,7.7,14.7,11.2,22.2L797,360.8c-10.6-22.5-19.2-39.5-34.6-59l52.5-41.1
		c4.6,5.9,4.8,7.5,9.1,13.6l55.9-38.9c-12.6-18-26.6-35.3-41.7-51.4l-49.7,46.5c4.8,5.2,4.6,5.9,9.2,11.3l-51.2,42.9
		c-11.4-13.6-19.1-21.5-32.5-33.1l43.7-50.7c3.7,3.2,7.3,6.3,10.9,9.6l46.3-49.9c-20.2-18.7-42.2-35.7-65.4-50.6l-36.4,56.8
		c-20.2-13-33.2-21-55.5-30.1l-25.5,62.6c-3.3-1.4-14.9-5.9-18.2-7.1l23.4-63.3c-8.8-3.3-17.8-6.1-26.9-8.7L629,55.3
		c-15.9-4.6-32.2-8.4-48.5-11.2l-11.6,66.4c-6.3-1.1-12.6-2.2-19-3l-8.5,67c-3.5-0.4-16.5-0.8-20-1.1l6.3-67.3
		c-8.1-0.8-7-1.2-15.2-1.4l2.2-67.4c-4.9-0.1-9.8-0.2-14.7-0.2C244.7,37.1,37.1,244.7,37.1,500c0,255.3,207.7,462.9,462.9,462.9
		c4.9,0,6.7-0.1,11.6-0.2l-2.2-67.3c7-0.2,16.1-0.6,23.7-1.1l8.2,67.3c2.9-0.4,33.5-4.5,36.4-4.9l-14.2-67c-2,0.3-18.4,2.6-26.3,3.8
		l-6.3-67.2c-10.2,1-20.6,1.4-30.8,1.4v-67.5c-143.4,0-260.1-116.7-260.1-260.1S356.6,239.9,500,239.9c40.8,0,79.9,9.2,116.1,27.3
		l30.1-60.3c4.5,2.3,18.7,10.6,23.1,13.1l-31.6,59.4c44.1,27.6,79.5,68.4,100.4,116l61.7-27.2c2,4.6,8.7,23.5,10.5,28.2l-62.2,25.3
		c7.9,25.2,11.9,51.4,11.9,78.2c0,48.9-13.6,96.4-39.3,137.6l57,35.7c-8.1,12.9-16.9,25.4-26.7,37.1l51.5,43.2
		c-4.5,5.4-9.2,10.8-14,15.9l49.8,46.5c18.8-20.1,35.9-42.1,50.8-65.2l-56.8-36.7c11.3-17.5,21.3-35.7,29.8-54.7l-61.6-29.3
		c1.3-3.3,7.6-17.2,8.8-20.6l63.7,22.6c2.4-6.8,4.6-13.6,6.6-20.5l64.5,19c4.7-15.8,8.5-32.1,11.4-48.4l-66.3-11.9
		c1.5-8.5,2.9-8.6,3.8-17.1l-67.3-7.6c0.4-3.5,0.8-15.5,1.1-19.1L894.4,532z"/>
	<path class="st0" d="M757.6,799l-43.7-50.7c-13.3,11.5-20.9,17.7-35.7,26.8l-36.3-57.5c-3.4,2.1-28.2,16.6-28.2,16.6l32.4,59.2
		c0,0,24.1-12.6,25.3-13.3l35.3,57.6c14.3-8.8,27.9-18.7,41-29.3l42.3,52.7c8.6-6.9,17-14.2,25.1-21.6l-46.3-49.9
		C765,792.7,761.3,795.8,757.6,799"/>
</g>
</svg>
