<svg width="48" height="48" viewBox="0 0 48 48" fill="none" xmlns="http://www.w3.org/2000/svg">
<rect width="48" height="48" rx="8" fill="#3ABF21" fill-opacity="0.1"/>
<path fill-rule="evenodd" clip-rule="evenodd" d="M28.4784 14.8778C29.0095 14.3467 29.8706 14.3467 30.4017 14.8778L38.5617 23.0378C39.0928 23.5689 39.0928 24.43 38.5617 24.9612L30.4017 33.1212C29.8706 33.6523 29.0095 33.6523 28.4784 33.1212C27.9472 32.59 27.9472 31.7289 28.4784 31.1978L35.6767 23.9995L28.4784 16.8012C27.9472 16.27 27.9472 15.4089 28.4784 14.8778Z" fill="#3ABF21"/>
<path fill-rule="evenodd" clip-rule="evenodd" d="M19.5216 14.8778C20.0528 15.4089 20.0528 16.27 19.5216 16.8012L12.3233 23.9995L19.5216 31.1978C20.0528 31.7289 20.0528 32.59 19.5216 33.1212C18.9905 33.6523 18.1294 33.6523 17.5983 33.1212L9.43831 24.9612C8.9072 24.43 8.9072 23.5689 9.43831 23.0378L17.5983 14.8778C18.1294 14.3467 18.9905 14.3467 19.5216 14.8778Z" fill="#3ABF21"/>
</svg>
