<svg width="48" height="48" viewBox="0 0 48 48" fill="none" xmlns="http://www.w3.org/2000/svg">
<rect width="48" height="48" rx="8" fill="#357DF4" fill-opacity="0.1"/>
<path fill-rule="evenodd" clip-rule="evenodd" d="M30 29.9996V34.7996H34.8V29.9996H30ZM27.6 29.9996C27.6 28.6741 28.6745 27.5996 30 27.5996H34.8C36.1255 27.5996 37.2 28.6741 37.2 29.9996V34.7996C37.2 36.1251 36.1255 37.1996 34.8 37.1996H30C28.6745 37.1996 27.6 36.1251 27.6 34.7996V29.9996Z" fill="#357DF4"/>
<path fill-rule="evenodd" clip-rule="evenodd" d="M13.2 29.9996V34.7996H18V29.9996H13.2ZM10.8 29.9996C10.8 28.6741 11.8745 27.5996 13.2 27.5996H18C19.3255 27.5996 20.4 28.6741 20.4 29.9996V34.7996C20.4 36.1251 19.3255 37.1996 18 37.1996H13.2C11.8745 37.1996 10.8 36.1251 10.8 34.7996V29.9996Z" fill="#357DF4"/>
<path fill-rule="evenodd" clip-rule="evenodd" d="M21.6 13.1998V17.9998H26.4V13.1998H21.6ZM19.2 13.1998C19.2 11.8743 20.2745 10.7998 21.6 10.7998H26.4C27.7255 10.7998 28.8 11.8743 28.8 13.1998V17.9998C28.8 19.3253 27.7255 20.3998 26.4 20.3998H21.6C20.2745 20.3998 19.2 19.3253 19.2 17.9998V13.1998Z" fill="#357DF4"/>
<path fill-rule="evenodd" clip-rule="evenodd" d="M15.1029 23.5027C15.553 23.0527 16.1635 22.7998 16.8 22.7998H31.2C31.8365 22.7998 32.447 23.0527 32.8971 23.5027C33.3471 23.9528 33.6 24.5633 33.6 25.1998V28.7998C33.6 29.4625 33.0627 29.9998 32.4 29.9998C31.7373 29.9998 31.2 29.4625 31.2 28.7998L31.2 25.1998H16.8L16.8 28.7998C16.8 29.4625 16.2627 29.9998 15.6 29.9998C14.9373 29.9998 14.4 29.4625 14.4 28.7998V25.1998C14.4 24.5633 14.6529 23.9528 15.1029 23.5027Z" fill="#357DF4"/>
<path fill-rule="evenodd" clip-rule="evenodd" d="M24 18C24.6628 18 25.2 18.5373 25.2 19.2V24C25.2 24.6627 24.6628 25.2 24 25.2C23.3373 25.2 22.8 24.6627 22.8 24V19.2C22.8 18.5373 23.3373 18 24 18Z" fill="#357DF4"/>
</svg>
