<svg width="48" height="48" viewBox="0 0 48 48" fill="none" xmlns="http://www.w3.org/2000/svg">
<rect width="48" height="48" rx="8" fill="#3ABF21" fill-opacity="0.1"/>
<path fill-rule="evenodd" clip-rule="evenodd" d="M12.8241 14.904C13.4542 14.2739 14.3089 13.9199 15.2 13.9199H30.88C31.7711 13.9199 32.6258 14.2739 33.2559 14.904C33.886 15.5342 34.24 16.3888 34.24 17.2799V18.9599C34.24 19.5785 33.7386 20.0799 33.12 20.0799C32.5014 20.0799 32 19.5785 32 18.9599V17.2799C32 16.9829 31.882 16.698 31.672 16.488C31.4619 16.2779 31.177 16.1599 30.88 16.1599H15.2C14.903 16.1599 14.6181 16.2779 14.408 16.488C14.198 16.698 14.08 16.9829 14.08 17.2799V32.9599C14.08 33.257 14.198 33.5418 14.408 33.7519C14.6181 33.9619 14.903 34.0799 15.2 34.0799H19.12C19.7386 34.0799 20.24 34.5814 20.24 35.1999C20.24 35.8185 19.7386 36.3199 19.12 36.3199H15.2C14.3089 36.3199 13.4542 35.9659 12.8241 35.3358C12.194 34.7057 11.84 33.851 11.84 32.9599V17.2799C11.84 16.3888 12.194 15.5342 12.8241 14.904Z" fill="#3ABF21"/>
<path fill-rule="evenodd" clip-rule="evenodd" d="M27.52 11.6797C28.1386 11.6797 28.64 12.1811 28.64 12.7997V17.2797C28.64 17.8982 28.1386 18.3997 27.52 18.3997C26.9015 18.3997 26.4 17.8982 26.4 17.2797V12.7997C26.4 12.1811 26.9015 11.6797 27.52 11.6797Z" fill="#3ABF21"/>
<path fill-rule="evenodd" clip-rule="evenodd" d="M18.56 11.6797C19.1786 11.6797 19.68 12.1811 19.68 12.7997V17.2797C19.68 17.8982 19.1786 18.3997 18.56 18.3997C17.9414 18.3997 17.44 17.8982 17.44 17.2797V12.7997C17.44 12.1811 17.9414 11.6797 18.56 11.6797Z" fill="#3ABF21"/>
<path fill-rule="evenodd" clip-rule="evenodd" d="M11.84 21.7596C11.84 21.1411 12.3414 20.6396 12.96 20.6396H18.56C19.1786 20.6396 19.68 21.1411 19.68 21.7596C19.68 22.3782 19.1786 22.8796 18.56 22.8796H12.96C12.3414 22.8796 11.84 22.3782 11.84 21.7596Z" fill="#3ABF21"/>
<path fill-rule="evenodd" clip-rule="evenodd" d="M27.52 25.1191C28.1386 25.1191 28.64 25.6206 28.64 26.2391V28.2768L29.8997 29.2846C30.3827 29.671 30.461 30.3758 30.0746 30.8588C29.6882 31.3418 28.9834 31.4201 28.5004 31.0337L26.8204 29.6897C26.5547 29.4772 26.4 29.1554 26.4 28.8151V26.2391C26.4 25.6206 26.9015 25.1191 27.52 25.1191Z" fill="#3ABF21"/>
<path fill-rule="evenodd" clip-rule="evenodd" d="M27.52 22.8796C24.4272 22.8796 21.92 25.3869 21.92 28.4796C21.92 31.5724 24.4272 34.0796 27.52 34.0796C30.6128 34.0796 33.12 31.5724 33.12 28.4796C33.12 25.3869 30.6128 22.8796 27.52 22.8796ZM19.68 28.4796C19.68 24.1497 23.1901 20.6396 27.52 20.6396C31.8499 20.6396 35.36 24.1497 35.36 28.4796C35.36 32.8096 31.8499 36.3196 27.52 36.3196C23.1901 36.3196 19.68 32.8096 19.68 28.4796Z" fill="#3ABF21"/>
</svg>
