<svg width="48" height="48" viewBox="0 0 48 48" fill="none" xmlns="http://www.w3.org/2000/svg">
<rect width="48" height="48" rx="8" fill="#357DF4" fill-opacity="0.1"/>
<path fill-rule="evenodd" clip-rule="evenodd" d="M13.12 37.5993C13.12 36.8482 13.7289 36.2393 14.48 36.2393H33.52C34.2711 36.2393 34.88 36.8482 34.88 37.5993C34.88 38.3504 34.2711 38.9593 33.52 38.9593H14.48C13.7289 38.9593 13.12 38.3504 13.12 37.5993Z" fill="#357DF4"/>
<path fill-rule="evenodd" clip-rule="evenodd" d="M13.12 10.4C13.12 9.64893 13.7289 9.04004 14.48 9.04004H33.52C34.2711 9.04004 34.88 9.64893 34.88 10.4C34.88 11.1511 34.2711 11.76 33.52 11.76H14.48C13.7289 11.76 13.12 11.1511 13.12 10.4Z" fill="#357DF4"/>
<path fill-rule="evenodd" clip-rule="evenodd" d="M23.0383 23.038C23.5694 22.5069 24.4305 22.5069 24.9617 23.038L30.9646 29.0409C30.9646 29.0409 30.9647 29.041 30.9647 29.041C31.7298 29.806 32.1598 30.8435 32.16 31.9254V37.5996C32.16 38.3508 31.5511 38.9596 30.8 38.9596C30.0489 38.9596 29.44 38.3508 29.44 37.5996V31.926C29.44 31.9259 29.44 31.9258 29.44 31.9257C29.4398 31.5652 29.2965 31.2194 29.0415 30.9645L30.003 30.0027L29.0414 30.9644L24 25.923L18.9586 30.9644L17.9968 30.0026L18.9585 30.9645C18.7035 31.2194 18.5602 31.5652 18.56 31.9257C18.56 31.9258 18.56 31.9259 18.56 31.926V37.5996C18.56 38.3508 17.9511 38.9596 17.2 38.9596C16.4489 38.9596 15.84 38.3508 15.84 37.5996V31.9254C15.8402 30.8435 16.2702 29.806 17.0353 29.041C17.0353 29.041 17.0354 29.0409 17.0354 29.0409L23.0383 23.038Z" fill="#357DF4"/>
<path fill-rule="evenodd" clip-rule="evenodd" d="M17.2 9.04004C17.9511 9.04004 18.56 9.64893 18.56 10.4V16.0737C18.56 16.0738 18.56 16.0739 18.56 16.074C18.5602 16.4345 18.7035 16.7803 18.9585 17.0352L17.9969 17.997L18.9586 17.0353L24 22.0767L29.0414 17.0353L30.003 17.997L29.0415 17.0352C29.2965 16.7803 29.4398 16.4345 29.44 16.074C29.44 16.0739 29.44 16.0738 29.44 16.0737V10.4C29.44 9.64893 30.0489 9.04004 30.8 9.04004C31.5511 9.04004 32.16 9.64893 32.16 10.4V16.0742C32.1598 17.1562 31.7298 18.1937 30.9647 18.9587C30.9647 18.9587 30.9646 18.9588 30.9646 18.9588L24.9617 24.9617C24.7066 25.2168 24.3607 25.36 24 25.36C23.6393 25.36 23.2934 25.2168 23.0383 24.9617L17.0354 18.9588C17.0354 18.9588 17.0353 18.9587 17.0353 18.9587C16.2702 18.1937 15.8402 17.1562 15.84 16.0742V10.4C15.84 9.64893 16.4489 9.04004 17.2 9.04004Z" fill="#357DF4"/>
</svg>
