<svg width="48" height="48" viewBox="0 0 48 48" fill="none" xmlns="http://www.w3.org/2000/svg">
<rect width="48" height="48" rx="8" fill="#357DF4" fill-opacity="0.1"/>
<path fill-rule="evenodd" clip-rule="evenodd" d="M24 13.1998C18.0353 13.1998 13.2 18.0351 13.2 23.9998C13.2 29.9645 18.0353 34.7998 24 34.7998C29.9647 34.7998 34.8 29.9645 34.8 23.9998C34.8 18.0351 29.9647 13.1998 24 13.1998ZM10.8 23.9998C10.8 16.7096 16.7099 10.7998 24 10.7998C31.2902 10.7998 37.2 16.7096 37.2 23.9998C37.2 31.29 31.2902 37.1998 24 37.1998C16.7099 37.1998 10.8 31.29 10.8 23.9998Z" fill="#357DF4"/>
<path fill-rule="evenodd" clip-rule="evenodd" d="M28.4485 19.5507C28.9172 20.0193 28.9172 20.7791 28.4485 21.2477L21.2485 28.4477C20.7799 28.9164 20.0201 28.9164 19.5515 28.4477C19.0829 27.9791 19.0829 27.2193 19.5515 26.7507L26.7515 19.5507C27.2201 19.0821 27.9799 19.0821 28.4485 19.5507Z" fill="#357DF4"/>
<path fill-rule="evenodd" clip-rule="evenodd" d="M19.5515 19.5507C20.0201 19.0821 20.7799 19.0821 21.2485 19.5507L28.4485 26.7507C28.9172 27.2193 28.9172 27.9791 28.4485 28.4477C27.9799 28.9164 27.2201 28.9164 26.7515 28.4477L19.5515 21.2477C19.0829 20.7791 19.0829 20.0193 19.5515 19.5507Z" fill="#357DF4"/>
</svg>
