<svg width="48" height="48" viewBox="0 0 48 48" fill="none" xmlns="http://www.w3.org/2000/svg">
<rect width="48" height="48" rx="8" fill="#3ABF21" fill-opacity="0.1"/>
<path fill-rule="evenodd" clip-rule="evenodd" d="M14.2544 13.6238C14.9296 12.9936 15.8452 12.6396 16.8 12.6396H27.6C27.9183 12.6396 28.2235 12.7576 28.4485 12.9677L34.4485 18.5677C34.6736 18.7777 34.8 19.0626 34.8 19.3596V33.9196C34.8 34.8108 34.4207 35.6654 33.7456 36.2955C33.0705 36.9256 32.1548 37.2796 31.2 37.2796H16.8C15.8452 37.2796 14.9296 36.9256 14.2544 36.2955C13.5793 35.6654 13.2 34.8108 13.2 33.9196V15.9996C13.2 15.1085 13.5793 14.2539 14.2544 13.6238ZM16.8 14.8796C16.4818 14.8796 16.1765 14.9976 15.9515 15.2077C15.7264 15.4177 15.6 15.7026 15.6 15.9996V33.9196C15.6 34.2167 15.7264 34.5016 15.9515 34.7116C16.1765 34.9216 16.4818 35.0396 16.8 35.0396H31.2C31.5183 35.0396 31.8235 34.9216 32.0485 34.7116C32.2736 34.5016 32.4 34.2167 32.4 33.9196V19.8236L27.103 14.8796H16.8Z" fill="#3ABF21"/>
<path fill-rule="evenodd" clip-rule="evenodd" d="M26.4 12.6396C27.0628 12.6396 27.6 13.1411 27.6 13.7596V18.2396C27.6 18.5367 27.7264 18.8216 27.9515 19.0316C28.1765 19.2416 28.4818 19.3596 28.8 19.3596H33.6C34.2628 19.3596 34.8 19.8611 34.8 20.4796C34.8 21.0982 34.2628 21.5996 33.6 21.5996H28.8C27.8452 21.5996 26.9296 21.2456 26.2544 20.6155C25.5793 19.9854 25.2 19.1308 25.2 18.2396V13.7596C25.2 13.1411 25.7373 12.6396 26.4 12.6396Z" fill="#3ABF21"/>
</svg>
