<svg width="52" height="52" viewBox="0 0 52 52" fill="none" xmlns="http://www.w3.org/2000/svg">
<path d="M51.1312 12.7687C51.1162 12.7174 51.0983 12.6669 51.0775 12.6177C51.044 12.5285 51.0037 12.4392 50.9635 12.3569C50.9309 12.3042 50.8951 12.2538 50.8561 12.2059C50.8056 12.1328 50.7495 12.064 50.6884 11.9999L50.5408 11.8764L50.3999 11.7666L50.3261 11.7322C50.3093 11.714 50.2887 11.6999 50.2657 11.6911L30.6748 1.66955C29.1155 0.880469 27.3993 0.469971 25.6597 0.469971C23.9201 0.469971 22.2039 0.880469 20.6446 1.66955L1.07383 11.6842L1.01345 11.7254L0.93965 11.7597L0.812175 11.8764C0.765211 11.9176 0.704828 11.9588 0.664573 11.9999C0.603459 12.064 0.547375 12.1328 0.496842 12.2059C0.455797 12.2521 0.419802 12.3027 0.389495 12.3569C0.341954 12.4391 0.303691 12.5266 0.275439 12.6177C0.275439 12.6726 0.228474 12.7138 0.215056 12.7687C0.175191 12.9233 0.154898 13.0825 0.154673 13.2423V30.0799C0.143513 32.6631 0.840413 35.1978 2.16627 37.3963C3.49213 39.5948 5.39385 41.369 7.65556 42.5175L24.9116 51.3447C24.9768 51.3751 25.044 51.4003 25.1129 51.4202L25.2404 51.4682C25.379 51.5027 25.5206 51.5234 25.6631 51.53C25.8055 51.5229 25.947 51.5022 26.0858 51.4682L26.2132 51.4202C26.2824 51.4011 26.3497 51.3758 26.4145 51.3447L43.6706 42.5175C45.933 41.3693 47.8357 39.5954 49.1627 37.397C50.4897 35.1986 51.1879 32.6637 51.1782 30.0799V13.2217C51.1823 13.0693 51.1665 12.9169 51.1312 12.7687ZM22.1474 4.74464C23.24 4.18951 24.4432 3.90063 25.6631 3.90063C26.8829 3.90063 28.0862 4.18951 29.1787 4.74464L45.7639 13.2217L31.4934 20.5114L29.1653 21.6988C28.0739 22.2539 26.8718 22.5427 25.653 22.5427C24.4343 22.5427 23.2321 22.2539 22.1407 21.6988L19.8126 20.5114L8.72904 14.8348L9.87631 14.9446C11.2163 15.0476 12.5619 15.0476 13.9018 14.9446C15.2437 14.8279 16.5855 14.6975 17.9274 14.6151C20.611 14.4779 23.2947 14.3086 25.9784 14.1072C28.6621 13.8738 31.3458 13.6885 34.0294 13.4208C34.0677 13.4149 34.1029 13.3962 34.1296 13.3677C34.1563 13.3391 34.173 13.3023 34.1771 13.2629C34.1808 13.2185 34.1675 13.1742 34.14 13.1396C34.1124 13.105 34.0728 13.0828 34.0294 13.0776C31.3458 12.803 28.6621 12.5971 25.9784 12.3912C23.2947 12.1853 20.611 11.9931 17.9274 11.8558C16.5855 11.7803 15.2437 11.643 13.9018 11.5263C12.5619 11.4234 11.2163 11.4234 9.87631 11.5263C9.49389 11.5263 9.10475 11.6018 8.72904 11.6361L22.1474 4.74464ZM3.49586 30.0799V16.0085L18.3232 23.6139C20.0201 24.4781 21.4473 25.8098 22.4442 27.4591C23.4412 29.1085 23.9681 31.0098 23.9656 32.949V44.5836C23.6503 43.8972 23.2947 43.2451 22.966 42.5862C22.374 41.4887 21.6964 40.442 20.9398 39.4561C20.1615 38.4814 19.3765 37.5136 18.6184 36.5115C17.1558 34.5072 15.6619 32.5189 14.1367 30.5466C12.5801 28.5835 11.0773 26.5998 9.48718 24.6641C9.46258 24.6337 9.42883 24.6125 9.3912 24.6038C9.35356 24.5951 9.31417 24.5994 9.27919 24.6161C9.2395 24.6392 9.21024 24.6773 9.1977 24.7222C9.18515 24.7671 9.19033 24.8152 9.2121 24.8563C10.346 27.094 11.5536 29.2836 12.7277 31.5144C13.9018 33.7453 15.143 35.8937 16.3909 38.0627C17.0149 39.1473 17.5785 40.2661 18.1622 41.3918C18.7453 42.4959 19.4186 43.5476 20.1749 44.5355C20.4299 44.8719 20.705 45.2219 20.98 45.524L9.15843 39.4561C7.44967 38.5944 6.01243 37.258 5.01107 35.5999C4.0097 33.9418 3.48461 32.0289 3.49586 30.0799ZM42.1677 39.4561L27.3471 47.0684V32.949C27.341 31.0029 27.8692 29.0942 28.8715 27.4402C29.8738 25.7861 31.3099 24.4533 33.0164 23.5933L40.222 19.8936L44.8715 17.5118C44.5562 17.8893 44.2476 18.2668 43.9457 18.6581C43.1669 19.6673 42.4691 20.7393 41.8591 21.8636C41.262 22.9962 40.6783 24.1356 40.0409 25.2476C38.7706 27.4624 37.5205 29.6909 36.2905 31.9331C35.0962 34.1983 33.855 36.436 32.6742 38.7148C32.6506 38.7534 32.6423 38.7998 32.651 38.8445C32.6597 38.8892 32.6848 38.9287 32.7212 38.9551C32.7396 38.9679 32.7603 38.9769 32.7822 38.9814C32.804 38.9859 32.8266 38.986 32.8484 38.9815C32.8703 38.977 32.8911 38.9681 32.9095 38.9553C32.928 38.9425 32.9438 38.9261 32.956 38.907C34.5662 36.9302 36.1093 34.8984 37.6524 32.8941C39.1955 30.8898 40.7387 28.8375 42.2482 26.7851C42.9997 25.7555 43.8048 24.7671 44.5696 23.7649C45.3563 22.7635 46.0588 21.6958 46.6696 20.5731C47.0587 19.8867 47.4143 19.1523 47.7632 18.3972V30.0661C47.7816 32.0099 47.267 33.92 46.278 35.5798C45.289 37.2395 43.865 38.5825 42.1677 39.4561Z" fill="#49A57F"/>
</svg>
