<svg width="48" height="48" viewBox="0 0 48 48" fill="none" xmlns="http://www.w3.org/2000/svg">
<rect width="48" height="48" rx="8" fill="#3ABF21" fill-opacity="0.1"/>
<path fill-rule="evenodd" clip-rule="evenodd" d="M24 13.1998C18.0353 13.1998 13.2 18.0351 13.2 23.9998C13.2 29.9645 18.0353 34.7998 24 34.7998C29.9647 34.7998 34.8 29.9645 34.8 23.9998C34.8 18.0351 29.9647 13.1998 24 13.1998ZM10.8 23.9998C10.8 16.7096 16.7099 10.7998 24 10.7998C31.2902 10.7998 37.2 16.7096 37.2 23.9998C37.2 31.29 31.2902 37.1998 24 37.1998C16.7099 37.1998 10.8 31.29 10.8 23.9998Z" fill="#3ABF21"/>
<path fill-rule="evenodd" clip-rule="evenodd" d="M24 10.7998C24.3284 10.7998 24.6425 10.9344 24.869 11.1722C28.1628 14.6307 30 19.2238 30 23.9998C30 28.7758 28.1628 33.3689 24.869 36.8274C24.6425 37.0652 24.3284 37.1998 24 37.1998C23.6716 37.1998 23.3575 37.0652 23.131 36.8274C19.8372 33.3689 18 28.7758 18 23.9998C18 19.2238 19.8372 14.6307 23.131 11.1722C23.3575 10.9344 23.6716 10.7998 24 10.7998ZM24 13.8174C21.679 16.6894 20.4 20.2809 20.4 23.9998C20.4 27.7187 21.679 31.3103 24 34.1822C26.321 31.3103 27.6 27.7187 27.6 23.9998C27.6 20.2809 26.321 16.6894 24 13.8174Z" fill="#3ABF21"/>
<path fill-rule="evenodd" clip-rule="evenodd" d="M10.8 23.9998C10.8 23.3371 11.3373 22.7998 12 22.7998H36C36.6628 22.7998 37.2 23.3371 37.2 23.9998C37.2 24.6625 36.6628 25.1998 36 25.1998H12C11.3373 25.1998 10.8 24.6625 10.8 23.9998Z" fill="#3ABF21"/>
</svg>
