<svg width="48" height="48" viewBox="0 0 48 48" fill="none" xmlns="http://www.w3.org/2000/svg">
<rect width="48" height="48" rx="8" fill="#3ABF21" fill-opacity="0.1"/>
<path fill-rule="evenodd" clip-rule="evenodd" d="M12 24.9598C12 24.3413 12.5373 23.8398 13.2 23.8398H13.212C13.8747 23.8398 14.412 24.3413 14.412 24.9598C14.412 25.5784 13.8747 26.0798 13.212 26.0798H13.2C12.5373 26.0798 12 25.5784 12 24.9598Z" fill="#3ABF21"/>
<path fill-rule="evenodd" clip-rule="evenodd" d="M12 31.6796C12 31.061 12.5373 30.5596 13.2 30.5596H13.212C13.8747 30.5596 14.412 31.061 14.412 31.6796C14.412 32.2981 13.8747 32.7996 13.212 32.7996H13.2C12.5373 32.7996 12 32.2981 12 31.6796Z" fill="#3ABF21"/>
<path fill-rule="evenodd" clip-rule="evenodd" d="M12 18.2391C12 17.6206 12.5373 17.1191 13.2 17.1191H13.212C13.8747 17.1191 14.412 17.6206 14.412 18.2391C14.412 18.8577 13.8747 19.3591 13.212 19.3591H13.2C12.5373 19.3591 12 18.8577 12 18.2391Z" fill="#3ABF21"/>
<path fill-rule="evenodd" clip-rule="evenodd" d="M18 24.9598C18 24.3413 18.5373 23.8398 19.2 23.8398H34.8C35.4627 23.8398 36 24.3413 36 24.9598C36 25.5784 35.4627 26.0798 34.8 26.0798H19.2C18.5373 26.0798 18 25.5784 18 24.9598Z" fill="#3ABF21"/>
<path fill-rule="evenodd" clip-rule="evenodd" d="M18 31.6796C18 31.061 18.5373 30.5596 19.2 30.5596H34.8C35.4627 30.5596 36 31.061 36 31.6796C36 32.2981 35.4627 32.7996 34.8 32.7996H19.2C18.5373 32.7996 18 32.2981 18 31.6796Z" fill="#3ABF21"/>
<path fill-rule="evenodd" clip-rule="evenodd" d="M18 18.2391C18 17.6206 18.5373 17.1191 19.2 17.1191H34.8C35.4627 17.1191 36 17.6206 36 18.2391C36 18.8577 35.4627 19.3591 34.8 19.3591H19.2C18.5373 19.3591 18 18.8577 18 18.2391Z" fill="#3ABF21"/>
</svg>
