<svg width="48" height="48" viewBox="0 0 48 48" fill="none" xmlns="http://www.w3.org/2000/svg">
<rect width="48" height="48" rx="8" fill="#357DF4" fill-opacity="0.1"/>
<path fill-rule="evenodd" clip-rule="evenodd" d="M23.04 15.0398C21.2679 15.0398 19.5356 15.5653 18.0621 16.5498C16.5886 17.5344 15.4402 18.9337 14.762 20.571C14.0839 22.2082 13.9064 24.0097 14.2522 25.7478C14.5979 27.4859 15.4512 29.0824 16.7043 30.3355C17.9574 31.5886 19.5539 32.4419 21.292 32.7876C23.0301 33.1334 24.8316 32.9559 26.4688 32.2778C28.1061 31.5996 29.5054 30.4512 30.49 28.9777C31.4745 27.5042 32 25.7719 32 23.9998C32 23.3812 32.5014 22.8798 33.12 22.8798C33.7386 22.8798 34.24 23.3812 34.24 23.9998C34.24 26.215 33.5831 28.3804 32.3525 30.2222C31.1218 32.064 29.3726 33.4996 27.3261 34.3473C25.2795 35.195 23.0276 35.4168 20.855 34.9846C18.6824 34.5524 16.6868 33.4857 15.1204 31.9194C13.5541 30.3531 12.4874 28.3574 12.0552 26.1848C11.6231 24.0122 11.8448 21.7603 12.6926 19.7138C13.5403 17.6672 14.9758 15.918 16.8176 14.6873C18.6594 13.4567 20.8249 12.7998 23.04 12.7998C26.1601 12.7998 29.1352 14.0376 31.365 16.1812C31.3703 16.1863 31.3756 16.1914 31.3808 16.1966L33.912 18.7278C34.3493 19.1652 34.3493 19.8744 33.912 20.3118C33.4746 20.7492 32.7654 20.7492 32.328 20.3118L29.8049 17.7886C27.9811 16.0391 25.5611 15.0398 23.04 15.0398Z" fill="#357DF4"/>
<path fill-rule="evenodd" clip-rule="evenodd" d="M33.12 12.7998C33.7386 12.7998 34.24 13.3012 34.24 13.9198V19.5198C34.24 20.1384 33.7386 20.6398 33.12 20.6398H27.52C26.9014 20.6398 26.4 20.1384 26.4 19.5198C26.4 18.9012 26.9014 18.3998 27.52 18.3998H32V13.9198C32 13.3012 32.5014 12.7998 33.12 12.7998Z" fill="#357DF4"/>
</svg>
