<svg width="48" height="48" viewBox="0 0 48 48" fill="none" xmlns="http://www.w3.org/2000/svg">
<rect width="48" height="48" rx="8" fill="#3ABF21" fill-opacity="0.1"/>
<path fill-rule="evenodd" clip-rule="evenodd" d="M24.8485 21.9511C25.3172 22.4197 25.3172 23.1795 24.8485 23.6481L15.2485 33.2481C14.7799 33.7168 14.0201 33.7168 13.5515 33.2481C13.0829 32.7795 13.0829 32.0197 13.5515 31.5511L23.1515 21.9511C23.6201 21.4825 24.3799 21.4825 24.8485 21.9511Z" fill="#3ABF21"/>
<path fill-rule="evenodd" clip-rule="evenodd" d="M13.5515 21.9511C14.0201 21.4825 14.7799 21.4825 15.2485 21.9511L24.8485 31.5511C25.3172 32.0197 25.3172 32.7795 24.8485 33.2481C24.3799 33.7168 23.6201 33.7168 23.1515 33.2481L13.5515 23.6481C13.0829 23.1795 13.0829 22.4197 13.5515 21.9511Z" fill="#3ABF21"/>
<path fill-rule="evenodd" clip-rule="evenodd" d="M29.286 14.8878C30.0295 14.4654 30.8956 14.3115 31.7391 14.452C32.5825 14.5926 33.352 15.0189 33.9183 15.6595C33.9201 15.6615 33.9218 15.6635 33.9236 15.6656C34.4917 16.3169 34.8001 17.147 34.8001 18.0023C34.8001 19.3029 34.0743 20.2118 33.3273 20.8114C32.6359 21.3663 31.7929 21.764 31.193 22.047C31.1657 22.0599 31.139 22.0725 31.1128 22.0849C30.5384 22.3563 30.3377 22.5377 30.2313 22.702C30.2134 22.7298 30.195 22.7619 30.1768 22.7999H33.6001C34.2628 22.7999 34.8001 23.3372 34.8001 23.9999C34.8001 24.6627 34.2628 25.1999 33.6001 25.1999H28.8001C28.1373 25.1999 27.6001 24.6627 27.6001 23.9999C27.6001 23.004 27.742 22.131 28.2166 21.3978C28.6928 20.6621 29.3921 20.2436 30.0873 19.915C30.7537 19.6001 31.3652 19.3088 31.825 18.9397C32.2606 18.5901 32.4001 18.3002 32.4001 18.0023C32.4001 17.7262 32.3013 17.4583 32.1175 17.2461C31.9162 17.0198 31.6435 16.8692 31.3447 16.8194C31.0446 16.7694 30.7366 16.8241 30.4721 16.9743C30.2115 17.1226 30.0229 17.3498 29.9288 17.6106C29.7037 18.234 29.016 18.5569 28.3926 18.3318C27.7692 18.1068 27.4463 17.4191 27.6713 16.7957C27.9636 15.9862 28.5381 15.3134 29.2854 14.8882L29.286 14.8878Z" fill="#3ABF21"/>
</svg>
