<svg width="70" height="70" viewBox="0 0 70 70" fill="none" xmlns="http://www.w3.org/2000/svg">
<rect width="70" height="70" rx="4" fill="#1E45B8" fill-opacity="0.08"/>
<path d="M25.5208 48.8542H28.8021V44.4792H33.1771V41.1979H28.8021V36.8229H25.5208V41.1979H21.1458V44.4792H25.5208V48.8542ZM36.4583 47.2135H47.3958V43.9323H36.4583V47.2135ZM36.4583 41.7448H47.3958V38.4635H36.4583V41.7448ZM38.8646 33.4323L41.9271 30.3698L44.9896 33.4323L47.2865 31.1354L44.224 27.9635L47.2865 24.901L44.9896 22.6042L41.9271 25.6667L38.8646 22.6042L36.5677 24.901L39.6302 27.9635L36.5677 31.1354L38.8646 33.4323ZM21.6927 29.6042H32.6302V26.3229H21.6927V29.6042ZM18.9583 55.4167C17.7552 55.4167 16.7253 54.9883 15.8685 54.1315C15.0117 53.2747 14.5833 52.2448 14.5833 51.0417V20.4167C14.5833 19.2135 15.0117 18.1836 15.8685 17.3268C16.7253 16.4701 17.7552 16.0417 18.9583 16.0417H49.5833C50.7865 16.0417 51.8164 16.4701 52.6732 17.3268C53.5299 18.1836 53.9583 19.2135 53.9583 20.4167V51.0417C53.9583 52.2448 53.5299 53.2747 52.6732 54.1315C51.8164 54.9883 50.7865 55.4167 49.5833 55.4167H18.9583ZM18.9583 51.0417H49.5833V20.4167H18.9583V51.0417Z" fill="#1E45B8"/>
</svg>
