<svg width="48" height="48" viewBox="0 0 48 48" fill="none" xmlns="http://www.w3.org/2000/svg">
<rect width="48" height="48" rx="8" fill="#5046E5" fill-opacity="0.1"/>
<path fill-rule="evenodd" clip-rule="evenodd" d="M22.2025 11.2826C22.7492 10.9676 23.369 10.8018 24 10.8018C24.631 10.8018 25.2508 10.9676 25.7975 11.2826C25.7983 11.2831 25.7992 11.2836 25.8 11.2841L34.1954 16.0814C34.1969 16.0823 34.1985 16.0832 34.2 16.0841C34.7467 16.3997 35.2008 16.8536 35.5168 17.4002C35.8327 17.9467 35.9994 18.5668 36 19.1981V28.8005C35.9994 29.4318 35.8327 30.0519 35.5168 30.5984C35.2008 31.145 34.7467 31.5989 34.2 31.9145C34.1985 31.9154 34.1969 31.9163 34.1954 31.9172L25.8 36.7145C25.7992 36.715 25.7985 36.7154 25.7977 36.7159C25.251 37.031 24.631 37.1968 24 37.1968C23.369 37.1968 22.749 37.031 22.2023 36.7159C22.2015 36.7154 22.2008 36.715 22.2 36.7145L13.8046 31.9172C13.8031 31.9163 13.8015 31.9154 13.8 31.9145C13.2533 31.5989 12.7992 31.145 12.4832 30.5984C12.1673 30.0519 12.0006 29.4318 12 28.8005V19.1981C12.0006 18.5668 12.1673 17.9467 12.4832 17.4002C12.7992 16.8536 13.2533 16.3997 13.8 16.0841C13.8015 16.0832 13.8031 16.0823 13.8046 16.0814L22.2025 11.2826ZM24 13.2018C23.7894 13.2018 23.5824 13.2572 23.4 13.3625C23.3985 13.3634 23.3969 13.3643 23.3954 13.3652L14.9981 18.1636C14.8167 18.2688 14.666 18.4197 14.5611 18.6012C14.4559 18.7833 14.4003 18.9898 14.4 19.2V28.7986C14.4003 29.0088 14.4559 29.2153 14.5611 29.3974C14.666 29.5789 14.8167 29.7297 14.998 29.8349C14.9987 29.8353 14.9993 29.8357 15 29.8361L23.3954 34.6334C23.3969 34.6343 23.3985 34.6352 23.4 34.6361C23.5824 34.7414 23.7894 34.7968 24 34.7968C24.2106 34.7968 24.4176 34.7414 24.6 34.6361C24.6015 34.6352 24.6031 34.6343 24.6046 34.6334L33 29.8361C33.0007 29.8357 33.0013 29.8353 33.002 29.8349C33.1833 29.7298 33.334 29.5789 33.4389 29.3974C33.5442 29.2152 33.5998 29.0085 33.6 28.7981V19.2005C33.5998 18.9901 33.5442 18.7834 33.4389 18.6012C33.334 18.4197 33.1833 18.2688 33.0019 18.1636C33.0012 18.1632 33.0006 18.1629 33 18.1625L24.6046 13.3652C24.6031 13.3643 24.6015 13.3634 24.6 13.3625C24.4176 13.2572 24.2106 13.2018 24 13.2018Z" fill="#5046E5"/>
<path fill-rule="evenodd" clip-rule="evenodd" d="M24 20.4C22.0118 20.4 20.4 22.0118 20.4 24C20.4 25.9882 22.0118 27.6 24 27.6C25.9882 27.6 27.6 25.9882 27.6 24C27.6 22.0118 25.9882 20.4 24 20.4ZM18 24C18 20.6863 20.6863 18 24 18C27.3137 18 30 20.6863 30 24C30 27.3137 27.3137 30 24 30C20.6863 30 18 27.3137 18 24Z" fill="#5046E5"/>
</svg>
