<svg width="48" height="48" viewBox="0 0 48 48" fill="none" xmlns="http://www.w3.org/2000/svg">
<rect width="48" height="48" rx="8" fill="#5046E5" fill-opacity="0.1"/>
<path fill-rule="evenodd" clip-rule="evenodd" d="M24 14.2497C18.6152 14.2497 14.25 18.6149 14.25 23.9997C14.25 29.3844 18.6152 33.7497 24 33.7497C29.3848 33.7497 33.75 29.3844 33.75 23.9997C33.75 18.6149 29.3848 14.2497 24 14.2497ZM12.0833 23.9997C12.0833 17.4183 17.4186 12.083 24 12.083C30.5814 12.083 35.9166 17.4183 35.9166 23.9997C35.9166 30.5811 30.5814 35.9163 24 35.9163C17.4186 35.9163 12.0833 30.5811 12.0833 23.9997Z" fill="#5046E5"/>
<path fill-rule="evenodd" clip-rule="evenodd" d="M24 16.417C24.5983 16.417 25.0834 16.902 25.0834 17.5003V24.0003C25.0834 24.5986 24.5983 25.0837 24 25.0837H19.125C18.5267 25.0837 18.0417 24.5986 18.0417 24.0003C18.0417 23.402 18.5267 22.917 19.125 22.917H22.9167V17.5003C22.9167 16.902 23.4017 16.417 24 16.417Z" fill="#5046E5"/>
</svg>
