<svg width="48" height="48" viewBox="0 0 48 48" fill="none" xmlns="http://www.w3.org/2000/svg">
<rect width="48" height="48" rx="8" fill="#5046E5" fill-opacity="0.1"/>
<path fill-rule="evenodd" clip-rule="evenodd" d="M14.4 15.5997L14.4 15.5998C14.4 15.6007 14.3999 15.6057 14.4037 15.6182C14.4077 15.6315 14.4178 15.6579 14.4421 15.6975C14.493 15.7805 14.5969 15.9052 14.7915 16.0586C15.1877 16.3708 15.8354 16.7045 16.7427 17.007C18.5448 17.6077 21.1107 17.9998 24 17.9998C26.8893 17.9998 29.4552 17.6077 31.2573 17.007C32.1646 16.7045 32.8123 16.3708 33.2085 16.0586C33.4031 15.9052 33.507 15.7805 33.5579 15.6975C33.5822 15.6579 33.5923 15.6315 33.5963 15.6182C33.6001 15.6057 33.6 15.6007 33.6 15.5998V15.5997C33.6 15.5987 33.6 15.5936 33.5963 15.5815C33.5923 15.5681 33.5822 15.5417 33.5579 15.5021C33.507 15.4191 33.4031 15.2944 33.2085 15.141C32.8123 14.8288 32.1646 14.4951 31.2573 14.1926C29.4552 13.5919 26.8893 13.1998 24 13.1998C21.1107 13.1998 18.5448 13.5919 16.7427 14.1926C15.8354 14.4951 15.1877 14.8288 14.7915 15.141C14.5969 15.2944 14.493 15.4191 14.4421 15.5021C14.4178 15.5417 14.4077 15.5681 14.4037 15.5815C14.4 15.5936 14.4 15.5987 14.4 15.5997ZM15.9838 11.9158C18.0905 11.2136 20.9246 10.7998 24 10.7998C27.0754 10.7998 29.9095 11.2136 32.0162 11.9158C33.0633 12.2648 33.9972 12.7069 34.6941 13.256C35.3773 13.7945 36 14.5775 36 15.5998C36 16.6221 35.3773 17.4051 34.6941 17.9436C33.9972 18.4927 33.0633 18.9348 32.0162 19.2838C29.9095 19.986 27.0754 20.3998 24 20.3998C20.9246 20.3998 18.0905 19.986 15.9838 19.2838C14.9367 18.9348 14.0028 18.4927 13.3059 17.9436C12.6227 17.4051 12 16.6221 12 15.5998C12 14.5775 12.6227 13.7945 13.3059 13.256C14.0028 12.7069 14.9367 12.2648 15.9838 11.9158Z" fill="#5046E5"/>
<path fill-rule="evenodd" clip-rule="evenodd" d="M13.2 14.3994C13.8627 14.3994 14.4 14.9367 14.4 15.5994V32.3994C14.4 32.3994 14.4 32.3995 14.4 32.3997C14.4 32.3999 14.4001 32.4004 14.4002 32.4013C14.4004 32.4028 14.4011 32.4065 14.4029 32.4127C14.4065 32.4247 14.4157 32.4498 14.4386 32.4879C14.4863 32.5675 14.5853 32.69 14.7744 32.8422C15.1597 33.1523 15.8041 33.4937 16.7427 33.8066C18.612 34.4297 21.2235 34.7994 24 34.7994C26.7765 34.7994 29.388 34.4297 31.2573 33.8066C32.1959 33.4937 32.8403 33.1523 33.2256 32.8422C33.4147 32.69 33.5137 32.5675 33.5614 32.4879C33.5843 32.4498 33.5935 32.4247 33.5971 32.4127C33.5989 32.4065 33.5996 32.4028 33.5998 32.4013C33.5999 32.4004 33.6 32.3999 33.6 32.3997C33.6 32.3995 33.6 32.3994 33.6 32.3994V15.5994C33.6 14.9367 34.1373 14.3994 34.8 14.3994C35.4627 14.3994 36 14.9367 36 15.5994V32.3994C36 33.3897 35.4091 34.1656 34.7302 34.712C34.0402 35.2672 33.103 35.7212 32.0162 36.0834C29.8347 36.8106 26.9522 37.1994 24 37.1994C21.0478 37.1994 18.1653 36.8106 15.9838 36.0834C14.897 35.7212 13.9598 35.2672 13.2698 34.712C12.5909 34.1656 12 33.3897 12 32.3994V15.5994C12 14.9367 12.5373 14.3994 13.2 14.3994Z" fill="#5046E5"/>
<path fill-rule="evenodd" clip-rule="evenodd" d="M13.2 22.7998C13.8627 22.7998 14.4 23.3371 14.4 23.9998V23.9998C14.4 23.9998 14.4 23.9999 14.4 24.0001C14.4 24.0003 14.4001 24.0008 14.4002 24.0017C14.4004 24.0032 14.4011 24.0069 14.4029 24.013C14.4065 24.0251 14.4157 24.0502 14.4386 24.0883C14.4863 24.1678 14.5853 24.2904 14.7744 24.4426C15.1597 24.7526 15.8041 25.0941 16.7427 25.407C18.612 26.0301 21.2235 26.3998 24 26.3998C26.7765 26.3998 29.388 26.0301 31.2573 25.407C32.1959 25.0941 32.8403 24.7526 33.2256 24.4426C33.4147 24.2904 33.5137 24.1678 33.5614 24.0883C33.5843 24.0502 33.5935 24.0251 33.5971 24.013C33.5989 24.0069 33.5996 24.0032 33.5998 24.0017C33.5999 24.0008 33.6 24.0003 33.6 24.0001C33.6 23.9999 33.6 23.9998 33.6 23.9998C33.6 23.3371 34.1373 22.7998 34.8 22.7998C35.4627 22.7998 36 23.3371 36 23.9998C36 24.9901 35.4091 25.766 34.7302 26.3123C34.0402 26.8676 33.103 27.3215 32.0162 27.6838C29.8347 28.411 26.9522 28.7998 24 28.7998C21.0478 28.7998 18.1653 28.411 15.9838 27.6838C14.897 27.3215 13.9598 26.8676 13.2698 26.3123C12.5909 25.766 12 24.9901 12 23.9998C12 23.3371 12.5373 22.7998 13.2 22.7998Z" fill="#5046E5"/>
</svg>
