<svg width="48" height="48" viewBox="0 0 48 48" fill="none" xmlns="http://www.w3.org/2000/svg">
<rect width="48" height="48" rx="8" fill="#3ABF21" fill-opacity="0.1"/>
<path fill-rule="evenodd" clip-rule="evenodd" d="M26.4 11.6797C27.0186 11.6797 27.52 12.1811 27.52 12.7997V15.0397C27.52 15.6582 27.0186 16.1597 26.4 16.1597C25.7815 16.1597 25.28 15.6582 25.28 15.0397V12.7997C25.28 12.1811 25.7815 11.6797 26.4 11.6797Z" fill="#3ABF21"/>
<path fill-rule="evenodd" clip-rule="evenodd" d="M26.4 25.1191C27.0186 25.1191 27.52 25.6206 27.52 26.2391V28.4791C27.52 29.0977 27.0186 29.5991 26.4 29.5991C25.7815 29.5991 25.28 29.0977 25.28 28.4791V26.2391C25.28 25.6206 25.7815 25.1191 26.4 25.1191Z" fill="#3ABF21"/>
<path fill-rule="evenodd" clip-rule="evenodd" d="M17.44 20.6395C17.44 20.021 17.9414 19.5195 18.56 19.5195H20.8C21.4186 19.5195 21.92 20.021 21.92 20.6395C21.92 21.2581 21.4186 21.7595 20.8 21.7595H18.56C17.9414 21.7595 17.44 21.2581 17.44 20.6395Z" fill="#3ABF21"/>
<path fill-rule="evenodd" clip-rule="evenodd" d="M30.88 20.6395C30.88 20.021 31.3814 19.5195 32 19.5195H34.24C34.8586 19.5195 35.36 20.021 35.36 20.6395C35.36 21.2581 34.8586 21.7595 34.24 21.7595H32C31.3814 21.7595 30.88 21.2581 30.88 20.6395Z" fill="#3ABF21"/>
<path fill-rule="evenodd" clip-rule="evenodd" d="M28.7441 22.9833C29.1814 22.5459 29.8906 22.5459 30.328 22.9833L31.672 24.3273C32.1094 24.7647 32.1094 25.4738 31.672 25.9112C31.2346 26.3486 30.5254 26.3486 30.0881 25.9112L28.7441 24.5672C28.3067 24.1298 28.3067 23.4207 28.7441 22.9833Z" fill="#3ABF21"/>
<path fill-rule="evenodd" clip-rule="evenodd" d="M25.28 20.6395C25.28 20.021 25.7815 19.5195 26.4 19.5195H26.4112C27.0298 19.5195 27.5312 20.021 27.5312 20.6395C27.5312 21.2581 27.0298 21.7595 26.4112 21.7595H26.4C25.7815 21.7595 25.28 21.2581 25.28 20.6395Z" fill="#3ABF21"/>
<path fill-rule="evenodd" clip-rule="evenodd" d="M31.672 15.3681C32.1094 15.8055 32.1094 16.5146 31.672 16.952L30.328 18.296C29.8906 18.7334 29.1814 18.7334 28.7441 18.296C28.3067 17.8586 28.3067 17.1495 28.7441 16.7121L30.0881 15.3681C30.5254 14.9307 31.2346 14.9307 31.672 15.3681Z" fill="#3ABF21"/>
<path fill-rule="evenodd" clip-rule="evenodd" d="M23.832 23.2079C24.2693 23.6453 24.2693 24.3545 23.832 24.7918L13.752 34.8718C13.3146 35.3092 12.6054 35.3092 12.168 34.8718C11.7306 34.4345 11.7306 33.7253 12.168 33.2879L22.248 23.2079C22.6854 22.7705 23.3946 22.7705 23.832 23.2079Z" fill="#3ABF21"/>
<path fill-rule="evenodd" clip-rule="evenodd" d="M21.128 15.3681C21.5654 14.9307 22.2746 14.9307 22.7119 15.3681L24.0559 16.7121C24.4933 17.1495 24.4933 17.8586 24.0559 18.296C23.6186 18.7334 22.9094 18.7334 22.472 18.296L21.128 16.952C20.6906 16.5146 20.6906 15.8055 21.128 15.3681Z" fill="#3ABF21"/>
</svg>
