<svg width="48" height="48" viewBox="0 0 48 48" fill="none" xmlns="http://www.w3.org/2000/svg">
<rect width="48" height="48" rx="8" fill="#5046E5" fill-opacity="0.1"/>
<path fill-rule="evenodd" clip-rule="evenodd" d="M27.25 13.167C27.8483 13.167 28.3333 13.652 28.3333 14.2503V33.7503C28.3333 34.3486 27.8483 34.8337 27.25 34.8337C26.6517 34.8337 26.1667 34.3486 26.1667 33.7503V14.2503C26.1667 13.652 26.6517 13.167 27.25 13.167Z" fill="#5046E5"/>
<path fill-rule="evenodd" clip-rule="evenodd" d="M16.4167 15.3337C15.8184 15.3337 15.3333 15.8187 15.3333 16.417V31.5837C15.3333 32.182 15.8184 32.667 16.4167 32.667H31.5833C32.1816 32.667 32.6667 32.182 32.6667 31.5837V16.417C32.6667 15.8187 32.1816 15.3337 31.5833 15.3337H16.4167ZM13.1667 16.417C13.1667 14.6221 14.6217 13.167 16.4167 13.167H31.5833C33.3783 13.167 34.8333 14.6221 34.8333 16.417V31.5837C34.8333 33.3786 33.3783 34.8337 31.5833 34.8337H16.4167C14.6217 34.8337 13.1667 33.3786 13.1667 31.5837V16.417Z" fill="#5046E5"/>
<path fill-rule="evenodd" clip-rule="evenodd" d="M13.1667 20.7503C13.1667 20.152 13.6517 19.667 14.25 19.667H33.75C34.3483 19.667 34.8333 20.152 34.8333 20.7503C34.8333 21.3486 34.3483 21.8337 33.75 21.8337H14.25C13.6517 21.8337 13.1667 21.3486 13.1667 20.7503Z" fill="#5046E5"/>
<path fill-rule="evenodd" clip-rule="evenodd" d="M13.1667 27.2503C13.1667 26.652 13.6517 26.167 14.25 26.167H33.75C34.3483 26.167 34.8333 26.652 34.8333 27.2503C34.8333 27.8486 34.3483 28.3337 33.75 28.3337H14.25C13.6517 28.3337 13.1667 27.8486 13.1667 27.2503Z" fill="#5046E5"/>
</svg>
