<svg width="48" height="48" viewBox="0 0 48 48" fill="none" xmlns="http://www.w3.org/2000/svg">
<rect width="48" height="48" rx="8" fill="#5046E5" fill-opacity="0.1"/>
<path fill-rule="evenodd" clip-rule="evenodd" d="M13.3139 26.5782C13.878 26.926 14.0533 27.6653 13.7054 28.2294C13.3843 28.7501 13.2106 29.3723 13.2 30.008C13.2022 30.8077 13.4707 31.5841 13.9631 32.2145C14.4574 32.8471 15.149 33.2964 15.928 33.4909C16.7069 33.6853 17.5285 33.6139 18.2621 33.2878C18.9958 32.9617 19.5994 32.3997 19.977 31.6912C19.9798 31.686 19.9826 31.6808 19.9855 31.6756C20.6554 30.4621 21.9823 28.7756 24.012 28.7756H31.2C31.8627 28.7756 32.4 29.3128 32.4 29.9756C32.4 30.6383 31.8627 31.1756 31.2 31.1756H24.012C23.403 31.1756 22.6917 31.7426 22.0904 32.8285C21.4608 34.0053 20.4567 34.9387 19.2369 35.4809C18.0142 36.0244 16.6448 36.1435 15.3466 35.8194C14.0484 35.4953 12.8957 34.7465 12.0719 33.692C11.2481 32.6376 10.8004 31.338 10.8 30C10.8 29.9941 10.8 29.9883 10.8001 29.9824C10.815 28.9411 11.0971 27.8867 11.6626 26.9697C12.0104 26.4056 12.7497 26.2303 13.3139 26.5782Z" fill="#5046E5"/>
<path fill-rule="evenodd" clip-rule="evenodd" d="M24.9725 13.3255C24.5087 13.1991 24.0243 13.1669 23.5478 13.2307C23.0713 13.2946 22.6124 13.4532 22.1983 13.6973C21.7841 13.9413 21.423 14.2658 21.1363 14.6517C20.8496 15.0376 20.643 15.477 20.5289 15.9439C20.4147 16.4109 20.3953 16.896 20.4716 17.3707C20.5474 17.8419 20.7162 18.2934 20.9681 18.6988C21.3781 19.3295 21.759 20.1009 21.9375 20.928C22.1184 21.7664 22.1034 22.7328 21.6103 23.6369C21.6099 23.6376 21.6095 23.6383 21.6091 23.639L17.8552 30.5711C17.5396 31.1538 16.8114 31.3704 16.2286 31.0548C15.6458 30.7393 15.4292 30.011 15.7448 29.4282L19.5008 22.4922C19.5015 22.4909 19.5022 22.4896 19.503 22.4882C19.6446 22.2289 19.6895 21.8882 19.5915 21.4342C19.492 20.9731 19.2583 20.4705 18.9509 19.9992C18.9467 19.9927 18.9426 19.9863 18.9386 19.9798C18.5138 19.3005 18.2294 18.5429 18.1021 17.7519C17.9748 16.9609 18.0073 16.1523 18.1975 15.374C18.3878 14.5957 18.732 13.8634 19.2099 13.2203C19.6877 12.5772 20.2896 12.0363 20.9799 11.6295C21.6701 11.2228 22.4349 10.9584 23.229 10.852C24.0231 10.7456 24.8305 10.7993 25.6036 11.01C26.3766 11.2206 27.0996 11.584 27.7299 12.0786C28.3602 12.5732 28.8851 13.1891 29.2736 13.8898C29.5949 14.4695 29.3855 15.1998 28.8058 15.5212C28.2262 15.8425 27.4958 15.6331 27.1745 15.0534C26.9414 14.633 26.6265 14.2635 26.2483 13.9667C25.8701 13.6699 25.4363 13.4519 24.9725 13.3255Z" fill="#5046E5"/>
<path fill-rule="evenodd" clip-rule="evenodd" d="M23.4248 15.7467C24.0064 15.429 24.7354 15.6429 25.0532 16.2246L28.8091 23.1005C28.8091 23.1005 28.8091 23.1005 28.8092 23.1006C29.1053 23.6424 29.9579 23.9998 31.2 23.9998C32.7913 23.9998 34.3175 24.632 35.4427 25.7572C36.5679 26.8824 37.2 28.4085 37.2 29.9998C37.2 31.5911 36.5679 33.1173 35.4427 34.2425C34.3175 35.3677 32.7913 35.9998 31.2 35.9998C30.5373 35.9998 30 35.4626 30 34.7998C30 34.1371 30.5373 33.5998 31.2 33.5998C32.1548 33.5998 33.0705 33.2206 33.7456 32.5454C34.4207 31.8703 34.8 30.9546 34.8 29.9998C34.8 29.0451 34.4207 28.1294 33.7456 27.4543C33.0705 26.7791 32.1548 26.3998 31.2 26.3998C29.8023 26.3998 27.6789 26.0374 26.703 24.2512L22.9469 17.3751C22.6292 16.7935 22.8431 16.0644 23.4248 15.7467Z" fill="#5046E5"/>
</svg>
