<svg width="32" height="32" viewBox="0 0 32 32" fill="none" xmlns="http://www.w3.org/2000/svg">
<path d="M0 4C0 1.79086 1.79086 0 4 0H28C30.2091 0 32 1.79086 32 4V28C32 30.2091 30.2091 32 28 32H4C1.79086 32 0 30.2091 0 28V4Z" fill="#DBEAFE"/>
<path d="M10.0367 15.3333H11.3333C11.687 15.3333 12.0261 15.4738 12.2761 15.7239C12.5262 15.9739 12.6667 16.313 12.6667 16.6667V17.3333C12.6667 17.687 12.8071 18.0261 13.0572 18.2761C13.3072 18.5262 13.6464 18.6667 14 18.6667C14.3536 18.6667 14.6928 18.8071 14.9428 19.0572C15.1929 19.3072 15.3333 19.6464 15.3333 20V21.9633M13.3333 10.6233V11.6667C13.3333 12.1087 13.5089 12.5326 13.8215 12.8452C14.134 13.1577 14.558 13.3333 15 13.3333H15.3333C15.687 13.3333 16.0261 13.4738 16.2761 13.7239C16.5262 13.9739 16.6667 14.313 16.6667 14.6667C16.6667 15.0203 16.8071 15.3594 17.0572 15.6095C17.3072 15.8595 17.6464 16 18 16C18.3536 16 18.6928 15.8595 18.9428 15.6095C19.1929 15.3594 19.3333 15.0203 19.3333 14.6667C19.3333 14.313 19.4738 13.9739 19.7239 13.7239C19.9739 13.4738 20.313 13.3333 20.6667 13.3333H21.376M18 21.6587V20C18 19.6464 18.1405 19.3072 18.3905 19.0572C18.6406 18.8071 18.9797 18.6667 19.3333 18.6667H21.376M22 16C22 16.7879 21.8448 17.5681 21.5433 18.2961C21.2417 19.0241 20.7998 19.6855 20.2426 20.2426C19.6855 20.7998 19.0241 21.2417 18.2961 21.5433C17.5681 21.8448 16.7879 22 16 22C15.2121 22 14.4319 21.8448 13.7039 21.5433C12.9759 21.2417 12.3145 20.7998 11.7574 20.2426C11.2002 19.6855 10.7583 19.0241 10.4567 18.2961C10.1552 17.5681 10 16.7879 10 16C10 14.4087 10.6321 12.8826 11.7574 11.7574C12.8826 10.6321 14.4087 10 16 10C17.5913 10 19.1174 10.6321 20.2426 11.7574C21.3679 12.8826 22 14.4087 22 16Z" stroke="#155DFC" stroke-width="1.33333" stroke-linecap="round" stroke-linejoin="round"/>
</svg>
