<svg width="48" height="48" viewBox="0 0 48 48" fill="none" xmlns="http://www.w3.org/2000/svg">
<rect width="48" height="48" rx="8" fill="#E4B50E" fill-opacity="0.1"/>
<path fill-rule="evenodd" clip-rule="evenodd" d="M14.4 17.1199C13.7373 17.1199 13.2 17.6213 13.2 18.2399V31.6799C13.2 32.2984 13.7373 32.7999 14.4 32.7999H33.6C34.2627 32.7999 34.8 32.2984 34.8 31.6799V18.2399C34.8 17.6213 34.2627 17.1199 33.6 17.1199H14.4ZM10.8 18.2399C10.8 16.3842 12.4118 14.8799 14.4 14.8799H33.6C35.5882 14.8799 37.2 16.3842 37.2 18.2399V31.6799C37.2 33.5356 35.5882 35.0399 33.6 35.0399H14.4C12.4118 35.0399 10.8 33.5356 10.8 31.6799V18.2399Z" fill="#E4B50E"/>
<path fill-rule="evenodd" clip-rule="evenodd" d="M10.9872 18.7587C11.3426 18.2366 12.0842 18.0824 12.6436 18.4141L23.4038 24.7958C23.5827 24.8998 23.7892 24.9549 24 24.9549C24.2108 24.9549 24.4173 24.8998 24.5962 24.7959L35.3564 18.4141C35.9158 18.0824 36.6574 18.2366 37.0128 18.7587C37.3683 19.2808 37.203 19.9729 36.6436 20.3047L25.8796 26.6887C25.8774 26.69 25.8753 26.6912 25.8731 26.6925C25.3117 27.0208 24.6625 27.1949 24 27.1949C23.3375 27.1949 22.6883 27.0208 22.1269 26.6925C22.1247 26.6912 22.1226 26.69 22.1204 26.6887L11.3564 20.3047C10.7971 19.9729 10.6318 19.2808 10.9872 18.7587Z" fill="#E4B50E"/>
</svg>
