<svg width="24" height="24" viewBox="0 0 24 24" fill="none" xmlns="http://www.w3.org/2000/svg">
<g id="icon switch" clip-path="url(#clip0_19_40924)">
<path id="Union" fill-rule="evenodd" clip-rule="evenodd" d="M10.6367 6.50067C9.67087 6.18917 8.97656 5.32715 8.97656 4.3125C8.97656 3.03534 10.0766 2 11.4336 2C12.7906 2 13.8906 3.03534 13.8906 4.3125C13.8906 5.14721 13.4207 5.87863 12.7163 6.28522C12.6586 7.85463 12.5625 9.50002 12.5625 9.50002C12.5625 10.5625 13.1602 11.5 14.0898 12.0625L16.4805 13.5C18.1406 14.4375 18.9375 15.75 18.9375 17.3125V17.8125C19.7344 18.1875 20.2656 18.9375 20.3984 19.8125C20.3984 21 19.3359 22 18.0742 22C16.8125 22 15.75 21 15.75 19.8125C15.75 18.9375 16.2813 18.1875 17.0781 17.8125V17.3125C17.0781 16.375 16.6133 15.6875 15.5508 15.0625L13.1602 13.625C13.1068 13.5915 13.0582 13.5625 13.013 13.5356C12.8898 13.462 12.7925 13.404 12.6953 13.3125V17.8125C13.4922 18.1875 14.0234 18.9375 14.0234 19.8125C14.0234 21 12.9609 22 11.6992 22C10.4375 22 9.375 21 9.375 19.8125C9.375 18.9375 9.90625 18.1875 10.7031 17.8125V13.3125C10.6158 13.3673 10.5412 13.4221 10.4738 13.4717C10.3874 13.5351 10.3129 13.5899 10.2383 13.625L7.84766 15.0625C6.78516 15.6875 6.32031 16.375 6.32031 17.3125V17.8125C7.11719 18.1875 7.64844 18.9375 7.64844 19.8125C7.64844 21 6.58594 22 5.32422 22C4.0625 22 3 21 3 19.8125C3 18.9375 3.53125 18.1875 4.32813 17.8125V17.3125C4.32813 15.75 5.125 14.4375 6.71875 13.5L9.10938 12.0625C10.1055 11.5 10.6367 9.50002 10.6367 9.50002V6.50067Z" fill="#63D54E"/>
</g>
<defs>
<clipPath id="clip0_19_40924">
<rect width="24" height="24" fill="white"/>
</clipPath>
</defs>
</svg>
