<svg width="48" height="48" viewBox="0 0 48 48" fill="none" xmlns="http://www.w3.org/2000/svg">
<rect width="48" height="48" rx="8" fill="#357DF4" fill-opacity="0.1"/>
<path fill-rule="evenodd" clip-rule="evenodd" d="M33.9645 28.8976V33.6265H38.6933V28.8976H33.9645ZM31.6 28.8976C31.6 27.5918 32.6586 26.5332 33.9645 26.5332H38.6933C39.9992 26.5332 41.0578 27.5918 41.0578 28.8976V33.6265C41.0578 34.9324 39.9992 35.991 38.6933 35.991H33.9645C32.6586 35.991 31.6 34.9324 31.6 33.6265V28.8976Z" fill="#357DF4"/>
<path fill-rule="evenodd" clip-rule="evenodd" d="M9.3067 28.8976V33.6265H14.0356V28.8976H9.3067ZM6.94226 28.8976C6.94226 27.5918 8.00086 26.5332 9.3067 26.5332H14.0356C15.3414 26.5332 16.4 27.5918 16.4 28.8976V33.6265C16.4 34.9324 15.3414 35.991 14.0356 35.991H9.3067C8.00086 35.991 6.94226 34.9324 6.94226 33.6265V28.8976Z" fill="#357DF4"/>
<path fill-rule="evenodd" clip-rule="evenodd" d="M21.6355 12.3459V17.0748H26.3644V12.3459H21.6355ZM19.2711 12.3459C19.2711 11.04 20.3297 9.98145 21.6355 9.98145H26.3644C27.6703 9.98145 28.7289 11.04 28.7289 12.3459V17.0748C28.7289 18.3806 27.6703 19.4392 26.3644 19.4392H21.6355C20.3297 19.4392 19.2711 18.3806 19.2711 17.0748V12.3459Z" fill="#357DF4"/>
<path fill-rule="evenodd" clip-rule="evenodd" d="M11.1815 22.4972C11.6249 22.0538 12.2263 21.8047 12.8534 21.8047H35.1467C35.7738 21.8047 36.3752 22.0538 36.8186 22.4972C37.262 22.9406 37.5111 23.542 37.5111 24.1691V27.7158C37.5111 28.3687 36.9818 28.898 36.3289 28.898C35.676 28.898 35.1467 28.3687 35.1467 27.7158L35.1467 24.1691H12.8534L12.8534 27.7158C12.8534 28.3687 12.3241 28.898 11.6711 28.898C11.0182 28.898 10.4889 28.3687 10.4889 27.7158V24.1691C10.4889 23.542 10.738 22.9406 11.1815 22.4972Z" fill="#357DF4"/>
<path fill-rule="evenodd" clip-rule="evenodd" d="M24 17.0752C24.6529 17.0752 25.1822 17.6045 25.1822 18.2574V22.9863C25.1822 23.6392 24.6529 24.1685 24 24.1685C23.3471 24.1685 22.8178 23.6392 22.8178 22.9863V18.2574C22.8178 17.6045 23.3471 17.0752 24 17.0752Z" fill="#357DF4"/>
<path fill-rule="evenodd" clip-rule="evenodd" d="M26.3644 33.7957L26.3644 29.0668L21.6355 29.0668L21.6355 33.7957L26.3644 33.7957ZM28.7289 33.7957C28.7289 35.1016 27.6703 36.1602 26.3644 36.1602L21.6355 36.1602C20.3297 36.1602 19.2711 35.1016 19.2711 33.7957L19.2711 29.0668C19.2711 27.761 20.3297 26.7024 21.6355 26.7024L26.3644 26.7024C27.6703 26.7024 28.7289 27.761 28.7289 29.0668L28.7289 33.7957Z" fill="#357DF4"/>
<path fill-rule="evenodd" clip-rule="evenodd" d="M24 29.0664C23.347 29.0664 22.8177 28.5371 22.8177 27.8842L22.8177 23.1553C22.8177 22.5024 23.347 21.9731 24 21.9731C24.6529 21.9731 25.1822 22.5024 25.1822 23.1553L25.1822 27.8842C25.1822 28.5371 24.6529 29.0664 24 29.0664Z" fill="#357DF4"/>
</svg>
