<svg width="48" height="48" viewBox="0 0 48 48" fill="none" xmlns="http://www.w3.org/2000/svg">
<rect width="48" height="48" rx="8" fill="#3ABF21" fill-opacity="0.1"/>
<path fill-rule="evenodd" clip-rule="evenodd" d="M26.4 23.9998C26.4 23.3371 26.9373 22.7998 27.6 22.7998H34.8C35.4628 22.7998 36 23.3371 36 23.9998C36 24.6625 35.4628 25.1998 34.8 25.1998H27.6C26.9373 25.1998 26.4 24.6625 26.4 23.9998Z" fill="#3ABF21"/>
<path fill-rule="evenodd" clip-rule="evenodd" d="M26.4 16.7996C26.4 16.1369 26.9373 15.5996 27.6 15.5996H34.8C35.4628 15.5996 36 16.1369 36 16.7996C36 17.4624 35.4628 17.9996 34.8 17.9996H27.6C26.9373 17.9996 26.4 17.4624 26.4 16.7996Z" fill="#3ABF21"/>
<path fill-rule="evenodd" clip-rule="evenodd" d="M17.0544 14.6678C17.3386 14.4923 17.666 14.3994 18 14.3994C18.334 14.3994 18.6614 14.4923 18.9456 14.6678C19.2298 14.8432 19.4596 15.0943 19.6092 15.3929C19.6152 15.4049 19.621 15.4169 19.6266 15.4291L23.8902 24.6979C24.1672 25.3 23.9036 26.0126 23.3015 26.2896C22.6994 26.5665 21.9868 26.303 21.7098 25.7009L18 17.636L14.2902 25.7009C14.0132 26.303 13.3006 26.5665 12.6985 26.2896C12.0964 26.0126 11.8329 25.3 12.1098 24.6979L16.3734 15.4291C16.379 15.4169 16.3848 15.4049 16.3908 15.3929C16.5405 15.0943 16.7702 14.8432 17.0544 14.6678Z" fill="#3ABF21"/>
<path fill-rule="evenodd" clip-rule="evenodd" d="M12 31.2C12 30.5373 12.5373 30 13.2 30H34.8C35.4627 30 36 30.5373 36 31.2C36 31.8627 35.4627 32.4 34.8 32.4H13.2C12.5373 32.4 12 31.8627 12 31.2Z" fill="#3ABF21"/>
<path fill-rule="evenodd" clip-rule="evenodd" d="M13.2 22.7996C13.2 22.1369 13.7373 21.5996 14.4 21.5996H21.6C22.2628 21.5996 22.8 22.1369 22.8 22.7996C22.8 23.4624 22.2628 23.9996 21.6 23.9996H14.4C13.7373 23.9996 13.2 23.4624 13.2 22.7996Z" fill="#3ABF21"/>
</svg>
