<svg width="22" height="24" viewBox="0 0 22 24" fill="none" xmlns="http://www.w3.org/2000/svg">
<path d="M10.847 23.9146C10.4199 23.9146 9.95019 23.7865 9.56585 23.573C8.79716 23.1032 8.28471 22.2918 8.28471 21.395C8.28471 21.0534 8.0712 20.7544 7.77227 20.5409L4.91105 18.8754C4.74023 18.79 4.5694 18.7473 4.39858 18.7473C4.22776 18.7473 4.09966 18.7473 3.92884 18.8754C3.5445 19.089 3.11745 19.2171 2.6477 19.2171C2.17795 19.2171 1.7509 19.089 1.36655 18.8754C0.768688 18.5338 0.34162 17.9786 0.170801 17.3381C-1.81487e-05 16.6975 0.085407 16.0142 0.427045 15.4164C0.896797 14.6477 1.70819 14.1352 2.6477 14.1352C3.5872 14.1352 3.5445 14.2633 3.92884 14.4768C4.69753 14.9466 5.20998 15.758 5.20998 16.6548C5.20998 16.9964 5.42349 17.2954 5.72242 17.5089L8.58364 19.1744C8.75446 19.2598 8.92529 19.3025 9.09611 19.3025C9.26693 19.3025 9.39503 19.3025 9.56585 19.1744C9.95019 18.9608 10.3772 18.8327 10.847 18.8327C11.3167 18.8327 11.7011 18.9608 12.0854 19.1744C12.2136 19.2598 12.3844 19.3025 12.5552 19.3025C12.726 19.3025 12.9395 19.2598 13.1104 19.1744L15.9716 17.5089C16.2705 17.3381 16.484 16.9964 16.484 16.6548C16.484 15.758 16.9538 14.9466 17.7225 14.4768C18.0214 14.306 18.1922 13.9644 18.1922 13.6228V10.2918C18.1922 9.95017 18.0214 9.60853 17.7225 9.43771C16.9538 8.96796 16.484 8.15658 16.4413 7.25979C16.4413 6.91815 16.2278 6.61922 15.9289 6.40569L13.0676 4.7402C12.8968 4.65479 12.726 4.61209 12.5552 4.61209C12.3844 4.61209 12.2563 4.61209 12.0854 4.7402C11.7011 4.95373 11.274 5.08183 10.8043 5.08183C10.3345 5.08183 9.9075 4.95373 9.52315 4.7402C9.39504 4.65479 9.22423 4.61209 9.05341 4.61209C8.88259 4.61209 8.66905 4.65479 8.49823 4.7402L5.63703 6.40569C5.3381 6.57651 5.12457 6.91813 5.12457 7.21706C5.12457 7.5587 5.3381 7.85764 5.63703 8.02846L8.49823 9.69395C8.66905 9.77936 8.83987 9.82206 9.01069 9.82206C9.18151 9.82206 9.30964 9.82207 9.48046 9.69395C9.8648 9.48043 10.2919 9.3523 10.7616 9.3523C11.2314 9.3523 11.6584 9.48043 12.0427 9.69395C13.2385 10.3772 13.6655 11.9573 12.9822 13.1957C12.5125 13.9644 11.7011 14.4768 10.7616 14.4768C9.8221 14.4768 9.8648 14.3487 9.48046 14.1352C8.71177 13.6655 8.19932 12.8541 8.19932 11.9573C8.19932 11.6157 7.98579 11.3167 7.68685 11.1032L4.82563 9.43771C4.65481 9.3523 4.48399 9.3096 4.31317 9.3096C4.14235 9.3096 4.01425 9.3096 3.84343 9.43771C3.45908 9.65123 3.03204 9.77934 2.56228 9.77934C1.66548 9.77934 0.811383 9.30959 0.34163 8.4982C-7.73802e-06 7.90034 -0.0854068 7.21706 0.0854122 6.5765C0.256231 5.93593 0.683274 5.38078 1.28114 5.03914C1.66548 4.82562 2.09253 4.69751 2.56228 4.69751C3.03204 4.69751 3.45908 4.82562 3.84343 5.03914C3.97154 5.12455 4.14235 5.16725 4.31317 5.16725C4.48399 5.16725 4.69751 5.12455 4.86832 5.03914L7.72955 3.37366C8.02848 3.20284 8.24201 2.86121 8.24201 2.51957C8.24201 1.62277 8.75447 0.768678 9.52315 0.341632C9.9075 0.128109 10.3345 0 10.8043 0C11.7011 0 12.5552 0.469751 13.025 1.28114C13.2385 1.66548 13.3666 2.09252 13.3666 2.51957C13.3666 2.86121 13.5801 3.16014 13.879 3.37366L16.7403 5.03914C16.9111 5.12455 17.0819 5.16725 17.2527 5.16725C17.4235 5.16725 17.5517 5.16725 17.7225 5.03914C18.1068 4.82562 18.5339 4.69751 19.0036 4.69751C20.4129 4.69751 21.5659 5.85053 21.5659 7.25979C21.5659 8.66904 21.0961 9.01066 20.3275 9.43771C20.0285 9.60853 19.8577 9.95017 19.8577 10.2918V13.6228C19.8577 13.9644 20.0285 14.306 20.3275 14.4768C21.0961 14.9466 21.6086 15.758 21.6086 16.6975C21.6086 18.1067 20.4556 19.2598 19.0463 19.2598C17.6371 19.2598 18.1495 19.1317 17.8079 18.9181C17.6798 18.8327 17.5089 18.79 17.3381 18.79C17.1673 18.79 16.9538 18.8327 16.783 18.9181L13.9217 20.5836C13.6228 20.7544 13.4093 21.0961 13.4093 21.4377C13.4093 21.8648 13.2812 22.3345 13.0676 22.7189C12.5979 23.4875 11.7865 24 10.847 24" fill="#00D92F"/>
</svg>
