<svg width="244" height="57" viewBox="0 0 244 57" fill="none" xmlns="http://www.w3.org/2000/svg">
<path d="M74.5001 19.9C72.4001 19.9 70.5 20.6 69.1 22.1C67.6 23.6 66.9 25.4 66.9 27.6C66.9 29.8 67.6 31.6 69.1 33.1C70.6 34.6 72.4001 35.3 74.5001 35.3C76.6001 35.3 78.5001 34.6 80.0001 33.1C81.5001 31.6 82.2001 29.8 82.2001 27.6C82.2001 25.4 81.5001 23.6 80.0001 22.1C78.5001 20.6 76.7001 19.9 74.5001 19.9ZM74.5001 39.8C71.1001 39.8 68.2 38.6 65.8 36.3C63.4 34 62.3 31.1 62.3 27.6C62.3 24.1 63.5 21.3 65.8 18.9C68.1 16.6 71.1001 15.4 74.5001 15.4C77.9001 15.4 80.8001 16.6 83.2001 18.9C85.6001 21.3 86.8 24.2 86.8 27.6C86.8 31 85.6001 33.9 83.2001 36.3C80.9001 38.6 77.9001 39.8 74.5001 39.8Z" fill="#110633"/>
<path d="M103.1 19.8C100.9 19.8 99 20.5 97.6 22.1C96.1 23.6 95.4 25.4 95.4 27.6C95.4 29.8 96.1 31.6 97.6 33.2C99.1 34.7 100.9 35.4 103.1 35.4C105.3 35.4 107.1 34.7 108.6 33.2C110.1 31.7 110.8 29.8 110.8 27.6C110.8 25.4 110.1 23.6 108.6 22.1C107.1 20.6 105.3 19.8 103.1 19.8ZM91.1 48.3C90.9 48.3 90.8 48.2 90.8 48V16.3C90.8 16.1 90.9 16 91.1 16H95.0001C95.2001 16 95.3 16.1 95.3 16.3V19.3C97.3 16.7 100 15.5 103.5 15.5C107 15.5 109.5 16.7 111.8 19.1C114.1 21.5 115.2 24.4 115.2 27.7C115.2 31 114 34 111.8 36.4C109.6 38.7 106.8 39.9 103.5 39.9C100.2 39.9 97.2 38.6 95.3 36.1V48.1C95.3 48.3 95.2001 48.4 95.0001 48.4H91.1V48.3Z" fill="#110633"/>
<path d="M137.2 25.7C136.5 22 133.9 19.7 130.3 19.7C126.7 19.7 123.6 22 122.8 25.7H137.2ZM130.6 39.8C127 39.8 123.9 38.6 121.6 36.4C119.3 34.1 118.2 31.1 118.2 27.6C118.2 24.1 119.3 21.2 121.6 18.9C123.9 16.6 126.8 15.4 130.4 15.4C134 15.4 136.6 16.6 138.7 19C140.8 21.3 141.9 24.2 141.9 27.6C141.9 31 141.9 28.8 141.8 29.4C141.8 29.5 141.7 29.7 141.5 29.7H122.9C123.7 33.3 126.6 35.5 130.7 35.5C134.8 35.5 135.7 34.5 137 32.3C137 32.3 137.2 32.2 137.3 32.2C137.4 32.2 137.3 32.2 137.4 32.2L140.7 34.1C140.7 34.1 140.8 34.2 140.8 34.3V34.5C138.5 38 135.1 39.7 130.6 39.7" fill="#110633"/>
<path d="M162.2 39.2C162 39.2 161.9 39.1 161.9 38.9V25.2C161.9 21.7 160 19.7 156.6 19.7C153.2 19.7 150.3 22.2 150.3 26.9V38.9C150.3 39.1 150.2 39.2 150 39.2H146.1C145.9 39.2 145.8 39.1 145.8 38.9V16.3C145.8 16.1 145.9 16 146.1 16H150C150.2 16 150.3 16.1 150.3 16.3V18.6C151.9 16.5 154.3 15.4 157.3 15.4C162.8 15.4 166.4 19.2 166.4 25V38.9C166.4 39.1 166.3 39.2 166.1 39.2H162.2Z" fill="#110633"/>
<path d="M182.2 19.9C180.1 19.9 178.2 20.6 176.8 22.1C175.3 23.6 174.6 25.4 174.6 27.6C174.6 29.8 175.3 31.6 176.8 33.1C178.3 34.6 180.1 35.3 182.2 35.3C184.3 35.3 186.2 34.6 187.7 33.1C189.2 31.6 189.9 29.8 189.9 27.6C189.9 25.4 189.2 23.6 187.7 22.1C186.2 20.6 184.4 19.9 182.2 19.9ZM182.2 39.8C178.8 39.8 175.9 38.6 173.5 36.3C171.1 33.9 170 31.1 170 27.6C170 24.1 171.2 21.3 173.5 18.9C175.8 16.6 178.8 15.4 182.2 15.4C185.6 15.4 188.5 16.6 190.9 18.9C193.3 21.3 194.5 24.2 194.5 27.6C194.5 31 193.3 33.9 190.9 36.3C188.6 38.6 185.6 39.8 182.2 39.8Z" fill="#110633"/>
<path d="M210.8 19.8C208.6 19.8 206.7 20.5 205.3 22.1C203.8 23.6 203.1 25.4 203.1 27.6C203.1 29.8 203.8 31.6 205.3 33.2C206.8 34.7 208.6 35.4 210.8 35.4C213 35.4 214.8 34.7 216.3 33.2C217.8 31.7 218.5 29.8 218.5 27.6C218.5 25.4 217.8 23.6 216.3 22.1C214.8 20.6 213 19.8 210.8 19.8ZM198.8 48.3C198.6 48.3 198.5 48.2 198.5 48V16.3C198.5 16.1 198.6 16 198.8 16H202.7C202.9 16 203 16.1 203 16.3V19.3C205 16.7 207.7 15.5 211.2 15.5C214.7 15.5 217.2 16.7 219.5 19.1C221.8 21.5 222.9 24.4 222.9 27.7C222.9 31 221.7 34 219.5 36.4C217.3 38.7 214.5 39.9 211.2 39.9C207.9 39.9 204.9 38.6 203 36.1V48.1C203 48.3 202.9 48.4 202.7 48.4H198.8V48.3Z" fill="#110633"/>
<path d="M234.5 39.8C230.1 39.8 226.6 37.8 225.2 34.3C225.2 34.2 225.2 34 225.3 33.9L228.7 32C228.7 32 228.7 32 228.8 32C228.9 32 228.8 32 228.9 32C228.9 32 229 32 229.1 32.2C229.8 34.2 231.8 35.5 234.4 35.5C237 35.5 238.6 35.2 238.6 32.7C238.6 30.2 237.2 30.3 234.4 29.6C230.8 28.6 226 27.4 226 22.4C226 17.4 226.8 18.7 228.4 17.3C230 16 232 15.3 234.3 15.3C238.1 15.3 241.2 17.1 242.7 20.2C242.7 20.3 242.7 20.5 242.6 20.6L239.3 22.5C239.3 22.5 239.3 22.5 239.2 22.5C239.2 22.5 239.1 22.5 239 22.3C238.2 20.5 236.7 19.6 234.4 19.6C232.1 19.6 230.7 20.4 230.7 22.3C230.7 24.2 232 24.6 235 25.4C237.9 26 243.5 27.2 243.4 32.6C243.4 34.7 242.6 36.5 240.9 37.8C239.2 39.1 237.2 39.7 234.7 39.7" fill="#110633"/>
<path d="M25.4 56C24.4 56 23.3 55.7 22.4 55.2C20.6 54.1 19.4 52.2 19.4 50.1C19.4 49.3 18.9 48.6 18.2 48.1L11.5 44.2C11.1 44 10.7 43.9 10.3 43.9C9.89998 43.9 9.60001 43.9 9.20001 44.2C8.30001 44.7 7.30001 45 6.20001 45C5.10001 45 4.10001 44.7 3.20001 44.2C1.80001 43.4 0.799958 42.1 0.399958 40.6C-4.24981e-05 39.1 0.199994 37.5 0.999994 36.1C2.09999 34.3 4.00001 33.1 6.20001 33.1C8.40001 33.1 8.30001 33.4 9.20001 33.9C11 35 12.2 36.9 12.2 39C12.2 39.8 12.7 40.5 13.4 41L20.1 44.9C20.5 45.1 20.9 45.2 21.3 45.2C21.7 45.2 22 45.2 22.4 44.9C23.3 44.4 24.3 44.1 25.4 44.1C26.5 44.1 27.4 44.4 28.3 44.9C28.6 45.1 29 45.2 29.4 45.2C29.8 45.2 30.3 45.1 30.7 44.9L37.4 41C38.1 40.6 38.6 39.8 38.6 39C38.6 36.9 39.7 35 41.5 33.9C42.2 33.5 42.6 32.7 42.6 31.9V24.1C42.6 23.3 42.2 22.5 41.5 22.1C39.7 21 38.6 19.1 38.5 17C38.5 16.2 38 15.5 37.3 15L30.6 11.1C30.2 10.9 29.8 10.8 29.4 10.8C29 10.8 28.7 10.8 28.3 11.1C27.4 11.6 26.4 11.9 25.3 11.9C24.2 11.9 23.2 11.6 22.3 11.1C22 10.9 21.6 10.8 21.2 10.8C20.8 10.8 20.3 10.9 19.9 11.1L13.2 15C12.5 15.4 12 16.2 12 16.9C12 17.7 12.5 18.4 13.2 18.8L19.9 22.7C20.3 22.9 20.7 23 21.1 23C21.5 23 21.8 23 22.2 22.7C23.1 22.2 24.1 21.9 25.2 21.9C26.3 21.9 27.3 22.2 28.2 22.7C31 24.3 32 28 30.4 30.9C29.3 32.7 27.4 33.9 25.2 33.9C23 33.9 23.1 33.6 22.2 33.1C20.4 32 19.2 30.1 19.2 28C19.2 27.2 18.7 26.5 18 26L11.3 22.1C10.9 21.9 10.5 21.8 10.1 21.8C9.69997 21.8 9.39999 21.8 8.99999 22.1C8.09999 22.6 7.09999 22.9 5.99999 22.9C3.89999 22.9 1.89998 21.8 0.799982 19.9C-1.81198e-05 18.5 -0.199994 16.9 0.200006 15.4C0.600006 13.9 1.59999 12.6 2.99999 11.8C3.89999 11.3 4.89999 11 5.99999 11C7.09999 11 8.09999 11.3 8.99999 11.8C9.29999 12 9.69997 12.1 10.1 12.1C10.5 12.1 11 12 11.4 11.8L18.1 7.89999C18.8 7.49999 19.3 6.69999 19.3 5.89999C19.3 3.79999 20.5 1.79999 22.3 0.799988C23.2 0.299988 24.2 0 25.3 0C27.4 0 29.4 1.1 30.5 3C31 3.9 31.3 4.89999 31.3 5.89999C31.3 6.69999 31.8 7.39999 32.5 7.89999L39.2 11.8C39.6 12 40 12.1 40.4 12.1C40.8 12.1 41.1 12.1 41.5 11.8C42.4 11.3 43.4 11 44.5 11C47.8 11 50.5 13.7 50.5 17C50.5 20.3 49.4 21.1 47.6 22.1C46.9 22.5 46.5 23.3 46.5 24.1V31.9C46.5 32.7 46.9 33.5 47.6 33.9C49.4 35 50.6 36.9 50.6 39.1C50.6 42.4 47.9 45.1 44.6 45.1C41.3 45.1 42.5 44.8 41.7 44.3C41.4 44.1 41 44 40.6 44C40.2 44 39.7 44.1 39.3 44.3L32.6 48.2C31.9 48.6 31.4 49.4 31.4 50.2C31.4 51.2 31.1 52.3 30.6 53.2C29.5 55 27.6 56.2 25.4 56.2" fill="#00D92F"/>
</svg>
